<?xml version="1.0" encoding="UTF-8" standalone="no"?>
<!-- Created with Inkscape (http://www.inkscape.org/) -->
<svg
   xmlns:dc="http://purl.org/dc/elements/1.1/"
   xmlns:cc="http://web.resource.org/cc/"
   xmlns:rdf="http://www.w3.org/1999/02/22-rdf-syntax-ns#"
   xmlns:svg="http://www.w3.org/2000/svg"
   xmlns="http://www.w3.org/2000/svg"
   xmlns:sodipodi="http://sodipodi.sourceforge.net/DTD/sodipodi-0.dtd"
   xmlns:inkscape="http://www.inkscape.org/namespaces/inkscape"
   width="447.32028"
   height="86.12999"
   id="svg2251"
   sodipodi:version="0.32"
   inkscape:version="0.45"
   sodipodi:docbase="I:\data\projects\2008\_rdfa_button\out"
   sodipodi:docname="sw-rdfa-lightblue-v.svg"
   inkscape:output_extension="org.inkscape.output.svg.inkscape"
   inkscape:export-filename="I:\data\projects\2008\_rdfa_button\out\sw-rdfa-lightblue-v.png"
   inkscape:export-xdpi="15.673981"
   inkscape:export-ydpi="15.673981"
   version="1.0"
   sodipodi:modified="true">
  <defs
     id="defs2253" />
  <sodipodi:namedview
     id="base"
     pagecolor="#ffffff"
     bordercolor="#666666"
     borderopacity="1.0"
     gridtolerance="10000"
     guidetolerance="10"
     objecttolerance="10"
     inkscape:pageopacity="0.0"
     inkscape:pageshadow="2"
     inkscape:zoom="0.35"
     inkscape:cx="375"
     inkscape:cy="520"
     inkscape:document-units="px"
     inkscape:current-layer="layer1"
     inkscape:window-width="1028"
     inkscape:window-height="773"
     inkscape:window-x="44"
     inkscape:window-y="58"
     width="1052.3622px"
     height="744.09448px" />
  <metadata
     id="metadata2256">
    <rdf:RDF>
      <cc:Work
         rdf:about="">
        <dc:format>image/svg+xml</dc:format>
        <dc:type
           rdf:resource="http://purl.org/dc/dcmitype/StillImage" />
      </cc:Work>
    </rdf:RDF>
  </metadata>
  <g
     inkscape:label="Layer 1"
     inkscape:groupmode="layer"
     id="layer1"
     transform="translate(-147.95276,-443.58288)">
    <text
       x="221.27281"
       y="415.24863"
       font-size="12"
       letter-spacing="-12"
       id="text2267"
       transform="scale(0.8137915,1.228816)"
       style="font-size:54.26465988px;letter-spacing:-54.26465988;fill-opacity:0;font-family:Trebuchet"
       inkscape:export-filename="I:\data\projects\2008\_rdfa_button\sw-rdfa-lightblue.png"
       inkscape:export-xdpi="9.6761904"
       inkscape:export-ydpi="9.6761904">W3C</text>
    <text
       style="font-size:61.1245079px;letter-spacing:-66.68128204;fill-opacity:0;font-family:Trebuchet"
       x="375.78049"
       y="510.26419"
       font-size="11"
       letter-spacing="-12"
       id="text2269"
       inkscape:export-filename="I:\data\projects\2008\_rdfa_button\sw-rdfa-lightblue.png"
       inkscape:export-xdpi="9.6761904"
       inkscape:export-ydpi="9.6761904">RDF</text>
    <rect
       y="444.97208"
       x="149.34195"
       width="230.60611"
       height="84.046196"
       id="rect2275"
       style="fill:#ffffff"
       inkscape:export-filename="I:\data\projects\2008\_rdfa_button\sw-rdfa-lightblue.png"
       inkscape:export-xdpi="9.6761904"
       inkscape:export-ydpi="9.6761904" />
    <rect
       y="444.97208"
       x="364.66696"
       width="229.2169"
       height="84.046196"
       id="rect2277"
       style="fill:#3caafa;fill-opacity:1"
       inkscape:export-filename="I:\data\projects\2008\_rdfa_button\sw-rdfa-lightblue.png"
       inkscape:export-xdpi="9.6761904"
       inkscape:export-ydpi="9.6761904" />
    <rect
       height="83.351601"
       width="444.5419"
       y="444.97208"
       x="149.34195"
       id="rect2287"
       style="fill:none;stroke:#005b9d;stroke-width:2.77838683"
       inkscape:export-filename="I:\data\projects\2008\_rdfa_button\sw-rdfa-lightblue.png"
       inkscape:export-xdpi="9.6761904"
       inkscape:export-ydpi="9.6761904" />
    <g
       transform="matrix(5.5567736,0,0,5.5567736,147.95276,443.5829)"
       id="g2291">
          <path
   style="fill:#241e12"
   id="path2293"
   d="M 23.911,1.633 C 24.316,1.633 24.64,1.962 24.64,2.368 C 24.64,2.78 24.317,3.106 23.908,3.106 C 23.504,3.106 23.174,2.78 23.174,2.368 C 23.174,1.962 23.504,1.633 23.908,1.633 L 23.911,1.633 L 23.911,1.633 z M 23.905,1.78 C 23.597,1.78 23.349,2.044 23.349,2.372 C 23.349,2.702 23.597,2.96 23.907,2.96 C 24.218,2.963 24.47,2.702 24.47,2.372 C 24.47,2.044 24.218,1.78 23.907,1.78 L 23.905,1.78 L 23.905,1.78 z M 23.781,2.796 L 23.607,2.796 L 23.607,1.979 C 23.672,1.968 23.745,1.956 23.869,1.956 C 24.009,1.956 24.095,1.979 24.149,2.021 C 24.195,2.057 24.221,2.112 24.221,2.198 C 24.221,2.296 24.153,2.364 24.065,2.387 L 24.065,2.394 C 24.136,2.407 24.182,2.471 24.195,2.593 C 24.212,2.72 24.228,2.77 24.241,2.795 L 24.061,2.795 C 24.041,2.766 24.028,2.693 24.012,2.582 C 23.998,2.494 23.947,2.459 23.858,2.459 L 23.781,2.459 L 23.781,2.796 z M 23.781,2.325 L 23.862,2.325 C 23.964,2.325 24.042,2.292 24.042,2.208 C 24.042,2.14 23.993,2.087 23.875,2.087 C 23.833,2.087 23.804,2.087 23.781,2.09 L 23.781,2.325 L 23.781,2.325 z " />

        </g>
    <g
       transform="matrix(5.5567736,0,0,5.5567736,147.95276,443.5829)"
       id="g2297">
            <g
   id="g2299">
              <path
   d="M 22.711,2.481 L 22.94,3.88 L 22.127,5.438 C 22.127,5.438 21.814,4.778 21.295,4.412 C 20.857,4.103 20.571,4.036 20.126,4.127 C 19.554,4.246 18.905,4.93 18.622,5.775 C 18.283,6.785 18.279,7.274 18.268,7.721 C 18.249,8.442 18.363,8.866 18.363,8.866 C 18.363,8.866 17.869,7.952 17.873,6.613 C 17.877,5.658 18.027,4.789 18.469,3.933 C 18.86,3.181 19.437,2.729 19.95,2.677 C 20.48,2.621 20.9,2.876 21.224,3.154 C 21.564,3.445 21.91,4.082 21.91,4.082 L 22.711,2.481 z "
   id="path2301"
   style="fill:#241e12" />

              <path
   d="M 22.811,10.395 C 22.811,10.395 22.453,11.038 22.228,11.287 C 22.003,11.535 21.602,11.972 21.107,12.189 C 20.611,12.409 20.351,12.45 19.861,12.401 C 19.372,12.356 18.917,12.072 18.757,11.953 C 18.599,11.836 18.191,11.488 17.961,11.163 C 17.73,10.838 17.37,10.189 17.37,10.189 C 17.37,10.189 17.57,10.839 17.696,11.116 C 17.768,11.274 17.991,11.761 18.305,12.183 C 18.599,12.578 19.17,13.257 20.037,13.411 C 20.904,13.565 21.501,13.174 21.647,13.081 C 21.794,12.987 22.105,12.727 22.302,12.516 C 22.507,12.296 22.702,12.016 22.809,11.848 C 22.888,11.725 23.016,11.477 23.016,11.477 L 22.811,10.395 z "
   id="path2303"
   style="fill:#241e12" />

            </g>

            <g
   id="g2305">
              <path
   d="M 7.833,2.544 L 9.794,9.211 L 11.755,2.544 L 13.175,2.544 L 9.929,13.498 L 9.794,13.498 L 7.765,6.71 L 5.736,13.498 L 5.601,13.498 L 2.354,2.544 L 3.774,2.544 L 5.735,9.211 L 7.061,4.721 L 6.412,2.544 L 7.833,2.544 z "
   id="path2307"
   style="fill:#005b9d" />

              <path
   d="M 17.206,9.981 C 17.206,10.972 16.942,11.807 16.416,12.483 C 15.889,13.16 15.205,13.498 14.366,13.498 C 13.735,13.498 13.186,13.297 12.717,12.896 C 12.247,12.495 11.901,11.952 11.676,11.266 L 12.784,10.807 C 12.946,11.221 13.161,11.548 13.427,11.786 C 13.693,12.027 14.005,12.145 14.366,12.145 C 14.745,12.145 15.065,11.934 15.327,11.509 C 15.589,11.086 15.72,10.575 15.72,9.981 C 15.72,9.323 15.579,8.814 15.3,8.454 C 14.976,8.029 14.466,7.817 13.773,7.817 L 13.232,7.817 L 13.232,7.169 L 15.125,3.896 L 12.84,3.896 L 12.203,4.978 L 11.799,4.978 L 11.799,2.544 L 17.072,2.544 L 17.072,3.205 L 15.07,6.655 C 15.774,6.88 16.306,7.29 16.666,7.884 C 17.026,8.48 17.206,9.179 17.206,9.981 z "
   id="path2309"
   style="fill:#005b9d" />

            </g>

          </g>
    <g
       transform="matrix(5.5567736,0,0,5.5567736,147.95276,443.5829)"
       id="g2311">
            <path
   d="M 31.437,2.691 C 34.96,4.28 35.728,1.352 35.728,1.352 C 35.728,1.352 35.058,5.024 31.97,6.524 C 31.34,6.829 30.949,6.993 30.949,6.993 L 25.889,4.526 L 30.949,2.452 C 30.949,2.452 30.827,2.417 31.437,2.691 z "
   id="path2313"
   style="fill:#87bb40" />

            <polygon
   points="30.359,13.445 25.646,10.892 25.646,5.628 30.359,8.024 30.359,13.445 "
   id="polygon2315"
   style="fill:#ed7d22" />

            <polygon
   points="31.421,13.445 36.134,10.892 36.134,5.628 31.421,8.024 31.421,13.445 "
   id="polygon2317"
   style="fill:#bd1b89" />

          </g>
    <path
       transform="matrix(5.6101319,0,0,5.251021,110.09811,517.6469)"
       style="font-size:12px;font-style:normal;font-variant:normal;font-weight:normal;font-stretch:normal;text-align:start;line-height:125%;writing-mode:lr-tb;text-anchor:start;fill:#ffffff;font-family:Arial Black"
       d="M 49.226563,-1.6914276 L 49.226563,-10.281271 L 53.650391,-10.281271 C 54.470697,-10.281263 55.097649,-10.21095 55.53125,-10.070334 C 55.964836,-9.9297006 56.314445,-9.6689587 56.580078,-9.2881073 C 56.845695,-8.9072407 56.978507,-8.443374 56.978516,-7.8965057 C 56.978507,-7.4199375 56.876945,-7.0088051 56.673828,-6.6631073 C 56.470695,-6.3173995 56.191398,-6.0371264 55.835938,-5.822287 C 55.609368,-5.6855642 55.298821,-5.5722831 54.904297,-5.4824432 C 55.220696,-5.3769708 55.451165,-5.2715021 55.595703,-5.166037 C 55.693352,-5.0957211 55.834953,-4.9453306 56.020508,-4.7148651 C 56.206047,-4.4843936 56.33007,-4.3066594 56.392578,-4.181662 L 57.675781,-1.6914276 L 54.675781,-1.6914276 L 53.257813,-4.3164276 C 53.07812,-4.6562684 52.917964,-4.8769713 52.777344,-4.978537 C 52.585933,-5.1113461 52.369137,-5.1777522 52.126953,-5.1777557 L 51.892578,-5.1777557 L 51.892578,-1.6914276 L 49.226563,-1.6914276 z M 51.892578,-6.8008026 L 53.011719,-6.8008026 C 53.132808,-6.8007975 53.367182,-6.8398599 53.714844,-6.9179901 C 53.890619,-6.9531411 54.034174,-7.0429847 54.145508,-7.1875213 C 54.25683,-7.332047 54.312494,-7.4980624 54.3125,-7.6855682 C 54.312494,-7.9629057 54.224603,-8.1757961 54.048828,-8.3242401 C 53.873041,-8.4726708 53.542964,-8.5468895 53.058594,-8.5468963 L 51.892578,-8.5468963 L 51.892578,-6.8008026 z M 58.554688,-10.281271 L 62.498047,-10.281271 C 63.275385,-10.281263 63.903314,-10.175794 64.381836,-9.9648651 C 64.860344,-9.7539195 65.255852,-9.4511855 65.568359,-9.056662 C 65.880851,-8.6621237 66.107413,-8.2031398 66.248047,-7.6797088 C 66.388663,-7.1562659 66.458976,-6.6015789 66.458984,-6.0156463 C 66.458976,-5.0976742 66.354483,-4.3857608 66.145508,-3.8799042 C 65.936515,-3.3740431 65.646476,-2.9502154 65.275391,-2.6084198 C 64.90429,-2.2666223 64.505853,-2.0390835 64.080078,-1.9258026 C 63.498041,-1.7695525 62.970698,-1.6914276 62.498047,-1.6914276 L 58.554688,-1.6914276 L 58.554688,-10.281271 z M 61.208984,-8.3359588 L 61.208984,-3.6425995 L 61.859375,-3.6425995 C 62.414058,-3.6425975 62.808589,-3.7041209 63.042969,-3.8271698 C 63.277338,-3.9502144 63.460932,-4.1650579 63.59375,-4.471701 C 63.726556,-4.7783386 63.792963,-5.2754084 63.792969,-5.962912 C 63.792963,-6.873063 63.644525,-7.4961093 63.347656,-7.8320526 C 63.050776,-8.1679836 62.558589,-8.3359522 61.871094,-8.3359588 L 61.208984,-8.3359588 z M 67.859375,-10.281271 L 74.421875,-10.281271 L 74.421875,-8.4355682 L 70.525391,-8.4355682 L 70.525391,-6.9355682 L 73.853516,-6.9355682 L 73.853516,-5.2011932 L 70.525391,-5.2011932 L 70.525391,-1.6914276 L 67.859375,-1.6914276 L 67.859375,-10.281271 z M 77.878906,-5.8984588 L 75.599609,-6.1386932 C 75.685546,-6.5371259 75.809569,-6.8506021 75.97168,-7.0791229 C 76.133788,-7.3076329 76.367186,-7.5058749 76.671875,-7.6738495 C 76.890623,-7.7949371 77.191404,-7.888687 77.574219,-7.9550995 C 77.957028,-8.0214994 78.37109,-8.0547025 78.816406,-8.0547088 C 79.531245,-8.0547025 80.105464,-8.0146635 80.539063,-7.9345917 C 80.97265,-7.8545074 81.333978,-7.6875153 81.623047,-7.4336151 C 81.826165,-7.2578283 81.986321,-7.0088051 82.103516,-6.6865448 C 82.220696,-6.3642745 82.27929,-6.0566576 82.279297,-5.7636932 L 82.279297,-3.0156463 C 82.27929,-2.7226766 82.297844,-2.4931846 82.334961,-2.3271698 C 82.372063,-2.1611537 82.453118,-1.9492398 82.578125,-1.6914276 L 80.339844,-1.6914276 C 80.249995,-1.8515837 80.191401,-1.9736539 80.164063,-2.0576385 C 80.136714,-2.1416225 80.10937,-2.2734583 80.082031,-2.4531463 C 79.769526,-2.1523646 79.45898,-1.9375211 79.150391,-1.8086151 C 78.728512,-1.6367402 78.238278,-1.5508027 77.679688,-1.5508026 C 76.937498,-1.5508027 76.374022,-1.7226776 75.989258,-2.0664276 C 75.604492,-2.4101769 75.412109,-2.8340046 75.412109,-3.337912 C 75.412109,-3.8105661 75.550781,-4.1992376 75.828125,-4.5039276 C 76.105468,-4.808612 76.617186,-5.0351743 77.363281,-5.1836151 C 78.257809,-5.3632989 78.837887,-5.4892754 79.103516,-5.5615448 C 79.369136,-5.6338065 79.650386,-5.7285329 79.947266,-5.8457245 C 79.947261,-6.1386888 79.886714,-6.3437667 79.765625,-6.4609588 C 79.644527,-6.5781415 79.431636,-6.6367352 79.126953,-6.6367401 C 78.736324,-6.6367352 78.443356,-6.5742352 78.248047,-6.4492401 C 78.0957,-6.3515792 77.972653,-6.1679856 77.878906,-5.8984588 L 77.878906,-5.8984588 z M 79.947266,-4.6445526 C 79.619136,-4.5273623 79.277339,-4.4238467 78.921875,-4.3340057 C 78.437497,-4.205097 78.130856,-4.078144 78.001953,-3.9531463 C 77.869138,-3.824238 77.802732,-3.6777537 77.802734,-3.5136932 C 77.802732,-3.3261916 77.868161,-3.1728714 77.999023,-3.0537323 C 78.12988,-2.9345904 78.322262,-2.8750202 78.576172,-2.8750213 C 78.841793,-2.8750202 79.088863,-2.9394732 79.317383,-3.0683807 C 79.545894,-3.1972855 79.708003,-3.3545119 79.803711,-3.5400604 C 79.899409,-3.7256052 79.947261,-3.9668159 79.947266,-4.2636932 L 79.947266,-4.6445526 z "
       id="flowRoot2448" />
  </g>
</svg>
